<svg width="12" height="8" viewBox="0 0 12 8" fill="none" xmlns="http://www.w3.org/2000/svg">
<mask id="path-1-inside-1_168_340" fill="white">
<path fill-rule="evenodd" clip-rule="evenodd" d="M12.0001 0.660787L11.3159 0L4.39718 6.68194L0.684204 3.09605L0 3.75684L4.39326 7.99973L4.44123 7.95339L4.44515 7.95718L12.0001 0.660787Z"/>
</mask>
<path d="M11.3159 0L12.0106 -0.719309L11.3159 -1.39022L10.6212 -0.719309L11.3159 0ZM12.0001 0.660787L12.6948 1.3801L13.4396 0.660787L12.6948 -0.0585226L12.0001 0.660787ZM4.39718 6.68194L3.70249 7.40125L4.39718 8.07216L5.09187 7.40125L4.39718 6.68194ZM0.684204 3.09605L1.37889 2.37674L0.684204 1.70583L-0.0104858 2.37674L0.684204 3.09605ZM0 3.75684L-0.69469 3.03753L-1.43949 3.75684L-0.69469 4.47615L0 3.75684ZM4.39326 7.99973L3.69857 8.71904L4.39325 9.38995L5.08794 8.71904L4.39326 7.99973ZM4.44123 7.95339L5.13594 7.2341L4.44125 6.56315L3.74654 7.23408L4.44123 7.95339ZM4.44515 7.95718L3.75045 8.67647L4.44514 9.34742L5.13984 8.67649L4.44515 7.95718ZM10.6212 0.719309L11.3054 1.3801L12.6948 -0.0585226L12.0106 -0.719309L10.6212 0.719309ZM5.09187 7.40125L12.0106 0.719309L10.6212 -0.719309L3.70249 5.96263L5.09187 7.40125ZM-0.0104858 3.81536L3.70249 7.40125L5.09187 5.96263L1.37889 2.37674L-0.0104858 3.81536ZM0.69469 4.47615L1.37889 3.81536L-0.0104858 2.37674L-0.69469 3.03753L0.69469 4.47615ZM5.08795 7.28042L0.69469 3.03753L-0.69469 4.47615L3.69857 8.71904L5.08795 7.28042ZM3.74654 7.23408L3.69857 7.28042L5.08794 8.71904L5.13592 8.6727L3.74654 7.23408ZM5.13986 7.23788L5.13594 7.2341L3.74653 8.67268L3.75045 8.67647L5.13986 7.23788ZM11.3054 -0.0585227L3.75046 7.23787L5.13984 8.67649L12.6948 1.3801L11.3054 -0.0585227Z" fill="#301229" mask="url(#path-1-inside-1_168_340)"/>
</svg>
