<svg width="63" height="57" viewBox="0 0 63 57" fill="none" xmlns="http://www.w3.org/2000/svg">
<ellipse cx="34.125" cy="28.5" rx="28.875" ry="28.5" fill="white"/>
<path d="M42.8046 31.1495C42.7079 31.1495 42.6112 31.1495 42.5144 31.1575L40.4992 24.3626C40.2976 23.6784 39.7978 23.1374 39.1691 22.8509C39.1771 22.835 39.1771 22.8271 39.1771 22.8111V22.2224C40.4911 22.0075 41.4907 20.7982 41.4907 19.3342C41.4907 17.8622 40.4911 16.6528 39.1771 16.438V15.8492C39.1771 15.6344 38.9998 15.4514 38.7741 15.4514C37.3553 15.4514 36.0575 15.7219 35.0095 16.1834L34.6226 14.99C34.4291 14.3375 33.8568 13.8999 33.1796 13.8283C32.9942 12.7064 31.9947 11.8472 30.7774 11.8472C30.5598 11.8472 30.3744 12.0222 30.3744 12.245V16.1436C30.3744 16.3664 30.5598 16.5415 30.7774 16.5415C31.9705 16.5415 32.962 15.714 33.1716 14.624C33.494 14.6796 33.76 14.9024 33.8568 15.2207L34.284 16.5494C33.099 17.2496 32.3816 18.2282 32.3816 19.3262C32.3816 20.3606 33.0184 21.2835 34.0744 21.9757L35.2191 32.3589C35.34 33.433 34.9853 34.5151 34.2518 35.3187C33.5182 36.1143 32.4783 36.5758 31.3901 36.5758H24.7961C23.5385 36.5758 22.4019 36.0029 21.6683 35.0004C20.9348 33.9979 20.7413 32.7487 21.1282 31.5791L22.5631 27.2986H23.0145C23.6272 27.2986 24.1754 26.9087 24.3688 26.3279L24.9089 24.7207C25.054 24.291 24.9815 23.8216 24.7074 23.4556C24.4414 23.0817 24.0141 22.8668 23.5546 22.8668H16.8478C16.9042 22.7316 16.9365 22.5804 16.9365 22.4213V10.7412C16.9365 10.057 16.3722 9.5 15.6789 9.5H2.16038C1.46713 9.5 0.902847 10.057 0.902847 10.7412V22.4213C0.902847 23.0578 1.39458 23.5829 2.02335 23.6466C1.92661 23.8375 1.86212 24.0523 1.86212 24.2831V25.8903C1.86212 26.5984 2.39416 27.1792 3.08742 27.2827V28.4523H1.48325C1.25754 28.4523 1.08019 28.6273 1.08019 28.8501V33.1466C1.08019 33.3693 1.25754 33.5444 1.48325 33.5444H3.05517C1.16886 35.3903 0 37.9443 0 40.7609C0 40.9837 0.177345 41.1587 0.403057 41.1587H3.6517C3.77261 44.6755 6.69881 47.5 10.3021 47.5C13.8893 47.5 16.8155 44.6755 16.9365 41.1587H35.6947C35.8559 41.1587 36.0172 41.1269 36.1703 41.111C36.3557 44.572 39.2577 47.325 42.8208 47.325C46.4805 47.325 49.4631 44.389 49.4631 40.7688C49.4631 40.4108 49.4228 40.0607 49.3664 39.7106H50.6723C50.898 39.7106 51.0754 39.5356 51.0754 39.3128C51.0673 34.8095 47.3672 31.1495 42.8046 31.1495ZM39.1771 17.2416C40.0397 17.4485 40.6846 18.3078 40.6846 19.3342C40.6846 20.3526 40.0397 21.2119 39.1771 21.4188V17.2416ZM31.1885 15.6981V12.6905C31.8979 12.8656 32.4138 13.4703 32.4138 14.1943C32.4138 14.9183 31.8899 15.531 31.1885 15.6981ZM33.1958 19.3262C33.1958 18.5783 33.7117 17.8941 34.542 17.353L35.2352 19.5092C35.2917 19.6763 35.4529 19.7877 35.6222 19.7877C35.6625 19.7877 35.7028 19.7797 35.7431 19.7718C35.9527 19.7002 36.0736 19.4774 36.0091 19.2705L35.2675 16.9631C36.1381 16.5653 37.2183 16.3028 38.3791 16.255V22.4054C35.5254 22.286 33.1958 20.9255 33.1958 19.3262ZM7.44043 10.2956H10.3989V13.4464L9.07684 12.8974C8.97205 12.8576 8.85919 12.8576 8.76246 12.8974L7.44043 13.4464V10.2956ZM2.16038 22.8668C1.91049 22.8668 1.70896 22.6679 1.70896 22.4213V10.7412C1.70896 10.4946 1.91049 10.2956 2.16038 10.2956H6.64238V14.0431C6.64238 14.1784 6.70687 14.3057 6.81972 14.3773C6.93258 14.4489 7.07768 14.4648 7.1986 14.4171L8.92368 13.693L10.6488 14.4171C10.6971 14.433 10.7536 14.441 10.81 14.441C10.8825 14.441 10.9631 14.425 11.0276 14.3773C11.1405 14.3057 11.213 14.1784 11.213 14.0431V10.2956H15.687C15.9369 10.2956 16.1384 10.4946 16.1384 10.7412V22.4213C16.1384 22.6679 15.9369 22.8668 15.687 22.8668H2.16038ZM2.66018 25.8903V24.2831C2.66018 23.941 2.94232 23.6625 3.28894 23.6625H23.5546C23.7562 23.6625 23.9416 23.758 24.0544 23.9171C24.1754 24.0842 24.2076 24.2831 24.1431 24.474L23.603 26.0812C23.5224 26.3358 23.2806 26.5029 23.0145 26.5029H3.49047C3.48241 26.5029 3.48241 26.5029 3.48241 26.5029H3.28894C2.95038 26.5029 2.66018 26.2245 2.66018 25.8903ZM1.88631 32.7487V29.2479H3.07936V32.7487H1.88631ZM10.3021 46.7044C7.15023 46.7044 4.57067 44.2379 4.45781 41.1587H6.06198C6.18289 43.3706 8.02889 45.129 10.2941 45.129C12.5593 45.129 14.4053 43.3706 14.5181 41.1587H16.1303C16.0094 44.2379 13.454 46.7044 10.3021 46.7044ZM6.87615 41.1587H13.7201C13.6072 42.925 12.124 44.3333 10.3021 44.3333C8.48032 44.3333 6.99707 42.925 6.87615 41.1587ZM0.822236 40.3631C1.03183 35.3823 5.2075 31.3961 10.3021 31.3961C15.3968 31.3961 19.5563 35.3823 19.774 40.3631H0.822236ZM35.6947 40.3631H20.564C20.3544 34.9447 15.8401 30.6005 10.3021 30.6005C7.88379 30.6005 5.65086 31.4359 3.89353 32.8204V27.2986H21.7248L20.3786 31.3245C19.903 32.7487 20.1367 34.2525 21.0234 35.4619C21.9102 36.6792 23.2886 37.3714 24.8041 37.3714H31.3981C32.7121 37.3714 33.9777 36.8145 34.8564 35.8518C35.7431 34.8811 36.1703 33.5762 36.0333 32.2793L34.945 22.4451C35.7108 22.7873 36.6137 23.0339 37.6133 23.1374L39.1288 36.9736C39.1207 38.8434 37.5891 40.3631 35.6947 40.3631ZM42.8127 46.5293C39.6366 46.5293 37.0571 44.0389 36.9603 40.9439C37.5891 40.745 38.1614 40.4188 38.629 39.9732C38.5806 40.2358 38.5484 40.4983 38.5484 40.7688C38.5484 43.0762 40.4589 44.9619 42.8046 44.9619C45.1504 44.9619 47.0529 43.0762 47.0529 40.7688C47.0529 40.4108 46.9884 40.0528 46.8997 39.7106H48.5442C48.6087 40.0607 48.649 40.4108 48.649 40.7688C48.649 43.9435 46.0291 46.5293 42.8127 46.5293ZM39.3545 40.7688C39.3545 40.4028 39.427 40.0528 39.5399 39.7106H46.0694C46.1823 40.0528 46.2467 40.4028 46.2467 40.7688C46.2467 42.6386 44.7071 44.1662 42.8046 44.1662C40.9022 44.1662 39.3545 42.6386 39.3545 40.7688ZM39.419 38.915C39.7334 38.3183 39.9349 37.6579 39.9349 36.9338L38.4597 23.4715C39.0562 23.5829 39.5641 23.9967 39.7334 24.5854L41.8373 31.6826C41.8937 31.8656 42.063 31.977 42.2565 31.969C42.4419 31.9531 42.6192 31.9451 42.8127 31.9451C46.7868 31.9451 50.0516 35.0402 50.2612 38.915H39.419Z" fill="#C136A4"/>
</svg>
