<svg width="41" height="41" viewBox="0 0 41 41" fill="none" xmlns="http://www.w3.org/2000/svg">
<path d="M35.875 17.0833C35.875 29.0416 20.5 39.2916 20.5 39.2916C20.5 39.2916 5.125 29.0416 5.125 17.0833C5.125 13.0055 6.74486 9.09486 9.62823 6.21149C12.5116 3.32811 16.4223 1.70825 20.5 1.70825C24.5777 1.70825 28.4884 3.32811 31.3718 6.21149C34.2551 9.09486 35.875 13.0055 35.875 17.0833Z" stroke="#C136A4" stroke-width="2" stroke-linecap="round" stroke-linejoin="round"/>
<path d="M20.5 22.2083C23.3305 22.2083 25.625 19.9137 25.625 17.0833C25.625 14.2528 23.3305 11.9583 20.5 11.9583C17.6695 11.9583 15.375 14.2528 15.375 17.0833C15.375 19.9137 17.6695 22.2083 20.5 22.2083Z" stroke="#C136A4" stroke-width="2" stroke-linecap="round" stroke-linejoin="round"/>
</svg>
