<svg width="63" height="57" viewBox="0 0 63 57" fill="none" xmlns="http://www.w3.org/2000/svg">
<ellipse cx="34.125" cy="28.5" rx="28.875" ry="28.5" fill="white"/>
<path d="M8.38436 31.2327H7.60078C7.49687 31.2327 7.39721 31.2653 7.32374 31.3233C7.25026 31.3813 7.20898 31.46 7.20898 31.542C7.20898 31.6241 7.25026 31.7028 7.32374 31.7608C7.39721 31.8188 7.49687 31.8514 7.60078 31.8514H8.38436C8.48827 31.8514 8.58792 31.8188 8.6614 31.7608C8.73487 31.7028 8.77615 31.6241 8.77615 31.542C8.77615 31.46 8.73487 31.3813 8.6614 31.3233C8.58792 31.2653 8.48827 31.2327 8.38436 31.2327Z" fill="#C136A4"/>
<path d="M20.8433 14.5273C17.4028 14.5273 14.0395 15.5253 11.1788 17.3949C8.31812 19.2645 6.08849 21.9219 4.77188 25.031C3.45527 28.1401 3.1108 31.5613 3.78204 34.8619C4.45328 38.1624 6.11008 41.1942 8.54293 43.5738C10.9758 45.9533 14.0754 47.5738 17.4498 48.2303C20.8242 48.8868 24.3219 48.5498 27.5005 47.2619C30.6791 45.974 33.3959 43.7931 35.3073 40.995C37.2187 38.1968 38.2389 34.9071 38.2388 31.5419C38.2336 27.0308 36.3992 22.706 33.138 19.5163C29.8768 16.3265 25.4552 14.5323 20.8433 14.5273ZM20.8433 47.8013C17.5556 47.8013 14.3418 46.8477 11.6082 45.0612C8.87466 43.2746 6.74408 40.7353 5.48594 37.7644C4.22779 34.7935 3.89858 31.5244 4.53994 28.3704C5.1813 25.2165 6.76442 22.3194 9.08911 20.0455C11.4138 17.7717 14.3756 16.2231 17.6001 15.5957C20.8246 14.9683 24.1668 15.2902 27.2043 16.5208C30.2417 17.7513 32.8378 19.8352 34.6644 22.509C36.4909 25.1827 37.4659 28.3262 37.466 31.5419C37.4611 35.8526 35.7082 39.9854 32.5919 43.0336C29.4756 46.0818 25.2504 47.7964 20.8433 47.8013Z" fill="#C136A4"/>
<path d="M21 18.5488C21.0831 18.5488 21.1628 18.5114 21.2216 18.4449C21.2804 18.3783 21.3134 18.2881 21.3134 18.194V17.3567C21.3134 17.2626 21.2804 17.1724 21.2216 17.1059C21.1628 17.0393 21.0831 17.002 21 17.002C20.9168 17.002 20.8371 17.0393 20.7783 17.1059C20.7195 17.1724 20.6865 17.2626 20.6865 17.3567V18.194C20.6865 18.2881 20.7195 18.3783 20.7783 18.4449C20.8371 18.5114 20.9168 18.5488 21 18.5488Z" fill="#C136A4"/>
<path d="M34.2819 31.8514H35.2999C35.4142 31.8514 35.524 31.8188 35.6048 31.7608C35.6857 31.7028 35.7312 31.6241 35.7312 31.542C35.7312 31.46 35.6857 31.3813 35.6048 31.3233C35.524 31.2653 35.4142 31.2327 35.2999 31.2327H34.2819C34.1675 31.2327 34.0578 31.2653 33.9769 31.3233C33.896 31.3813 33.8506 31.46 33.8506 31.542C33.8506 31.6241 33.896 31.7028 33.9769 31.7608C34.0578 31.8188 34.1675 31.8514 34.2819 31.8514Z" fill="#C136A4"/>
<path d="M30.7604 21.1464L30.1901 21.85C30.1259 21.9289 30.0898 22.0361 30.0896 22.1479C30.0894 22.2597 30.1253 22.367 30.1893 22.4462C30.2532 22.5254 30.3401 22.5701 30.4307 22.5702C30.5214 22.5704 30.6084 22.5262 30.6726 22.4473L31.2428 21.7437C31.2746 21.7046 31.2998 21.6582 31.3171 21.6071C31.3343 21.556 31.3433 21.5012 31.3433 21.4458C31.3434 21.3904 31.3346 21.3356 31.3175 21.2844C31.3004 21.2332 31.2753 21.1867 31.2437 21.1475C31.212 21.1082 31.1744 21.0771 31.1329 21.0558C31.0915 21.0345 31.0471 21.0235 31.0022 21.0234C30.9573 21.0233 30.9129 21.0341 30.8714 21.0552C30.8299 21.0763 30.7922 21.1073 30.7604 21.1464Z" fill="#C136A4"/>
<path d="M11.0667 21.1417C10.9862 21.065 10.8784 21.0225 10.7665 21.0235C10.6545 21.0244 10.5474 21.0687 10.4683 21.1468C10.3891 21.2249 10.3443 21.3306 10.3433 21.441C10.3423 21.5515 10.3853 21.6579 10.4631 21.7373L11.1765 22.4416C11.2158 22.4819 11.2629 22.514 11.315 22.536C11.3671 22.5581 11.4231 22.5697 11.4798 22.5702C11.5365 22.5707 11.5927 22.5601 11.6452 22.5389C11.6976 22.5177 11.7453 22.4864 11.7854 22.4469C11.8255 22.4073 11.8572 22.3603 11.8786 22.3085C11.9001 22.2567 11.9109 22.2013 11.9104 22.1453C11.9099 22.0894 11.8981 22.0341 11.8758 21.9827C11.8534 21.9313 11.8209 21.8849 11.7801 21.846L11.0667 21.1417Z" fill="#C136A4"/>
<path d="M21 44.5352C20.9168 44.5352 20.8371 44.5725 20.7783 44.6391C20.7195 44.7056 20.6865 44.7958 20.6865 44.8899V45.7272C20.6865 45.8213 20.7195 45.9115 20.7783 45.9781C20.8371 46.0446 20.9168 46.082 21 46.082C21.0831 46.082 21.1628 46.0446 21.2216 45.9781C21.2804 45.9115 21.3134 45.8213 21.3134 45.7272V44.8899C21.3134 44.7958 21.2804 44.7056 21.2216 44.6391C21.1628 44.5725 21.0831 44.5352 21 44.5352Z" fill="#C136A4"/>
<path d="M30.6768 40.6424C30.6453 40.6021 30.6076 40.57 30.5659 40.5479C30.5243 40.5258 30.4794 40.5142 30.4341 40.5137C30.3887 40.5132 30.3438 40.5239 30.3018 40.5451C30.2598 40.5663 30.2217 40.5976 30.1896 40.6372C30.1576 40.6767 30.1322 40.7238 30.115 40.7756C30.0979 40.8274 30.0892 40.8829 30.0896 40.9389C30.09 40.9949 30.0994 41.0502 30.1173 41.1017C30.1352 41.1531 30.1612 41.1996 30.1939 41.2385L30.7645 41.9421C30.829 42.0189 30.9152 42.0614 31.0048 42.0605C31.0943 42.0595 31.18 42.0152 31.2433 41.937C31.3066 41.8588 31.3425 41.7531 31.3433 41.6426C31.3441 41.532 31.3097 41.4255 31.2475 41.346L30.6768 40.6424Z" fill="#C136A4"/>
<path d="M11.1849 40.6409L10.4798 41.3367C10.4379 41.3747 10.4042 41.4207 10.3808 41.4719C10.3573 41.5231 10.3446 41.5785 10.3434 41.6347C10.3421 41.6909 10.3524 41.7467 10.3737 41.7989C10.3949 41.851 10.4265 41.8984 10.4668 41.9382C10.507 41.9779 10.555 42.0093 10.6078 42.0303C10.6607 42.0513 10.7172 42.0615 10.7742 42.0604C10.8311 42.0593 10.8872 42.0468 10.9392 42.0237C10.9911 42.0007 11.0378 41.9675 11.0764 41.9261L11.7815 41.2304C11.8218 41.1919 11.854 41.1459 11.8761 41.0951C11.8983 41.0442 11.9099 40.9895 11.9104 40.9342C11.9109 40.8788 11.9002 40.8239 11.879 40.7727C11.8577 40.7215 11.8264 40.6749 11.7867 40.6358C11.747 40.5966 11.6999 40.5657 11.6479 40.5447C11.596 40.5238 11.5404 40.5132 11.4843 40.5137C11.4282 40.5142 11.3728 40.5257 11.3212 40.5475C11.2697 40.5694 11.2231 40.6011 11.1841 40.6409H11.1849Z" fill="#C136A4"/>
<path d="M22.7369 32.7025C22.9496 32.4068 23.0836 32.0623 23.1263 31.7011C23.1689 31.3399 23.1189 30.9738 22.9809 30.6371C22.8429 30.3004 22.6214 30.004 22.3371 29.7756C22.0528 29.5472 21.7149 29.3943 21.3551 29.3312V23.5683C21.3551 23.4678 21.315 23.3714 21.2436 23.3003C21.1722 23.2292 21.0753 23.1892 20.9743 23.1892C20.8733 23.1892 20.7764 23.2292 20.705 23.3003C20.6336 23.3714 20.5934 23.4678 20.5934 23.5683V29.3312C20.2754 29.3874 19.974 29.5137 19.7113 29.7008C19.4486 29.888 19.2313 30.1313 19.0753 30.4129C18.9194 30.6945 18.8286 31.0073 18.8098 31.3283C18.791 31.6493 18.8446 31.9705 18.9666 32.2682C19.0887 32.566 19.2761 32.8328 19.5151 33.0491C19.7541 33.2654 20.0387 33.4257 20.3481 33.5183C20.6574 33.6109 20.9837 33.6334 21.3029 33.5842C21.6221 33.5351 21.9263 33.4154 22.193 33.234L24.1159 35.1479C24.1878 35.217 24.284 35.2552 24.3838 35.2543C24.4837 35.2535 24.5792 35.2136 24.6498 35.1433C24.7204 35.073 24.7605 34.9779 24.7614 34.8785C24.7622 34.7791 24.7238 34.6833 24.6545 34.6118L22.7369 32.7025ZM19.5693 31.4513C19.5696 31.1748 19.6523 30.9045 19.8068 30.6747C19.9614 30.4449 20.1809 30.2659 20.4377 30.1603C20.6944 30.0546 20.9769 30.0271 21.2493 30.0813C21.5217 30.1354 21.7719 30.2687 21.9683 30.4644C22.1646 30.6601 22.2983 30.9093 22.3524 31.1806C22.4065 31.4518 22.3785 31.733 22.2722 31.9884C22.1658 32.2439 21.9857 32.4623 21.7547 32.6159C21.5237 32.7695 21.2521 32.8515 20.9743 32.8515C20.6018 32.8511 20.2447 32.7036 19.9813 32.4414C19.7179 32.1792 19.5697 31.8237 19.5693 31.4529V31.4513Z" fill="#C136A4"/>
<path d="M37.0498 15.7041L37.9354 16.403C38.0943 16.5281 38.2971 16.5862 38.4995 16.5643C38.7018 16.5425 38.8871 16.4426 39.0145 16.2865L40.2581 14.7648C40.3852 14.6086 40.4441 14.4091 40.4219 14.2102C40.3997 14.0114 40.2982 13.8292 40.1397 13.7038L35.458 10.0071C35.2992 9.88181 35.0964 9.82364 34.894 9.8454C34.6916 9.86716 34.5063 9.96707 34.3789 10.1231L33.1357 11.6449C33.0086 11.8011 32.9497 12.0006 32.9719 12.1995C32.9941 12.3983 33.0956 12.5805 33.2541 12.7059L34.1405 13.4055L33.0664 14.7203C30.3221 12.8156 27.1508 11.5902 23.8218 11.148V9.07353H25.6802C25.9263 9.07293 26.1621 8.97654 26.3361 8.80544C26.5101 8.63434 26.6082 8.40246 26.6088 8.16049V5.23115C26.6082 4.98919 26.5101 4.7573 26.3361 4.5862C26.1621 4.41511 25.9263 4.31872 25.6802 4.31812H16.3144C16.0683 4.31872 15.8325 4.41511 15.6585 4.5862C15.4845 4.7573 15.3864 4.98919 15.3858 5.23115V8.16049C15.3864 8.40246 15.4845 8.63434 15.6585 8.80544C15.8325 8.97654 16.0683 9.07293 16.3144 9.07353H18.1759V11.148C14.8473 11.5903 11.6764 12.8157 8.93241 14.7203L7.85793 13.4055L8.74475 12.7059C8.90305 12.5801 9.00416 12.3978 9.02592 12.1988C9.04767 11.9998 8.98831 11.8005 8.86083 11.6445L7.61766 10.1228C7.4902 9.96669 7.30491 9.86678 7.10254 9.84502C6.90017 9.82326 6.6973 9.88143 6.53854 10.0067L1.85683 13.703C1.77828 13.7652 1.71295 13.842 1.6646 13.929C1.61625 14.016 1.58581 14.1115 1.57503 14.2101C1.56425 14.3086 1.57334 14.4083 1.60177 14.5035C1.63021 14.5986 1.67744 14.6873 1.74076 14.7644L2.98392 16.2862C3.11139 16.4422 3.29664 16.5421 3.49898 16.564C3.70132 16.5858 3.9042 16.5277 4.06304 16.4026L4.94831 15.7037L6.08004 17.0908C3.16321 19.9862 1.18304 23.6657 0.388982 27.6656C-0.405081 31.6655 0.0224682 35.807 1.61778 39.5684C3.21309 43.3299 5.9048 46.543 9.35388 48.8031C12.803 51.0633 16.8551 52.2693 21 52.2693C25.1449 52.2693 29.197 51.0633 32.6461 48.8031C36.0952 46.543 38.7869 43.3299 40.3822 39.5684C41.9775 35.807 42.4051 31.6655 41.611 27.6656C40.817 23.6657 38.8368 19.9862 35.92 17.0908L37.0498 15.7041ZM34.972 10.5998L39.6537 14.2877L38.4191 15.8095L33.7412 12.117L34.972 10.5998ZM34.7422 13.8822L36.4466 15.2274L35.3597 16.5589C34.8276 16.0676 34.2701 15.6036 33.6894 15.1688L34.7422 13.8822ZM16.1585 8.16049V5.23115C16.1585 5.1908 16.1748 5.15209 16.2038 5.12355C16.2328 5.09501 16.2722 5.07898 16.3133 5.07898H25.6802C25.7212 5.07898 25.7606 5.09501 25.7896 5.12355C25.8186 5.15209 25.8349 5.1908 25.8349 5.23115V8.16049C25.8349 8.20085 25.8186 8.23956 25.7896 8.26809C25.7606 8.29663 25.7212 8.31266 25.6802 8.31266H16.3144C16.294 8.31281 16.2737 8.30899 16.2548 8.30141C16.2359 8.29383 16.2187 8.28264 16.2042 8.2685C16.1897 8.25435 16.1782 8.23753 16.1704 8.21899C16.1625 8.20045 16.1585 8.18057 16.1585 8.16049ZM18.9497 9.07353H23.046V11.056C22.372 10.9917 21.6895 10.9563 20.9985 10.9563C20.3074 10.9563 19.6241 10.9917 18.9478 11.056L18.9497 9.07353ZM3.58713 15.8102L2.34319 14.2965L7.01755 10.5987L8.25569 12.1166L3.58713 15.8102ZM7.25628 13.8822L8.30753 15.1688C7.72715 15.604 7.17002 16.0684 6.63837 16.5601L5.55151 15.2286L7.25628 13.8822ZM20.9985 51.4918C16.9981 51.4918 13.0876 50.3255 9.7614 48.1402C6.43523 45.955 3.84279 42.8491 2.31192 39.2152C0.781053 35.5813 0.380508 31.5826 1.16094 27.7249C1.94137 23.8672 3.86772 20.3236 6.6964 17.5424C9.52508 14.7611 13.129 12.867 17.0525 12.0997C20.976 11.3323 25.0428 11.7261 28.7387 13.2314C32.4345 14.7366 35.5934 17.2856 37.8159 20.556C40.0384 23.8264 41.2246 27.6714 41.2246 31.6047C41.2186 36.8773 39.0857 41.9322 35.2938 45.6605C31.502 49.3887 26.3609 51.4859 20.9985 51.4918Z" fill="#C136A4"/>
</svg>
