<svg width="63" height="57" viewBox="0 0 63 57" fill="none" xmlns="http://www.w3.org/2000/svg">
<ellipse cx="34.125" cy="28.5" rx="28.875" ry="28.5" fill="white"/>
<path d="M0.579079 39.7618L5.72155 37.0651C5.17225 36.6177 4.81926 35.9788 4.73608 35.2814C4.71023 34.9388 4.7695 34.5952 4.90877 34.2802C5.04803 33.9652 5.26309 33.6884 5.53535 33.4737C5.80761 33.2589 6.12886 33.1128 6.47133 33.0479C6.8138 32.9829 7.16718 33.0012 7.50089 33.101L11.2746 34.172H11.302L12.2054 33.6557C11.2942 20.3341 19.2132 13.1764 19.2914 13.1032C19.3642 13.0349 19.4608 12.9968 19.5613 12.9968C19.6617 12.9968 19.7584 13.0349 19.8311 13.1032C20.205 13.4627 20.5062 13.8889 20.7188 14.3591C20.9222 13.9738 21.1333 13.5578 21.3406 13.134C21.5752 12.6563 21.8099 12.1709 22.0328 11.6894C21.3787 11.6018 20.7787 11.2844 20.3434 10.7956C19.616 9.86332 19.9523 8.45719 19.9758 8.3994C19.9972 8.31393 20.0477 8.23826 20.1188 8.18499C20.19 8.13171 20.2775 8.10406 20.3668 8.10662C20.4294 8.10662 21.8959 8.13359 22.6272 9.06587C22.7561 9.2329 22.8577 9.41878 22.9283 9.61676C23.2159 8.97346 23.3994 8.2897 23.4719 7.5904C23.0437 7.15923 22.7989 6.58319 22.7875 5.9801C22.854 5.05552 23.7926 4.41217 23.8317 4.3852C23.9038 4.33667 23.9904 4.31334 24.0776 4.31893C24.1647 4.32451 24.2475 4.3587 24.3127 4.41602C24.3518 4.44684 25.1926 5.20577 25.1339 6.13034C25.0447 6.72297 24.7302 7.26005 24.254 7.63278C24.2266 8.66522 23.3428 10.7686 22.4864 12.5677C22.8358 12.4526 23.2013 12.3916 23.5697 12.3866C23.6734 12.3866 23.7728 12.4272 23.8462 12.4995C23.9195 12.5717 23.9607 12.6697 23.9607 12.7719C23.9607 12.8741 23.9195 12.972 23.8462 13.0443C23.7728 13.1165 23.6734 13.1571 23.5697 13.1571C23.0014 13.1811 22.4474 13.3397 21.9546 13.6194C21.6769 14.1819 21.4227 14.675 21.235 15.0294C22.502 15.0872 25.2903 15.4146 26.9445 17.0712C27.1116 16.5709 27.2231 16.0542 27.2769 15.5302C26.3979 15.266 25.6561 14.6781 25.2059 13.8888C24.7558 13.0995 24.6319 12.1696 24.8602 11.2926L26.0333 6.71205C26.0489 6.65216 26.0788 6.59684 26.1206 6.55075C26.1625 6.50466 26.2149 6.46917 26.2736 6.44725C26.3323 6.42534 26.3954 6.41766 26.4578 6.42486C26.5201 6.43206 26.5797 6.45393 26.6317 6.48861C26.9613 6.70704 27.2761 6.9464 27.5741 7.20516C28.1985 6.70585 28.9237 6.34337 29.7015 6.1419C29.7646 6.12668 29.8305 6.12717 29.8933 6.14331C29.9561 6.15945 30.0138 6.19074 30.0613 6.23436C30.6534 6.76339 31.1091 7.42365 31.3909 8.16056C31.7389 8.08351 32.1183 8.01416 32.5641 7.95638C32.6273 7.9477 32.6917 7.9544 32.7517 7.97588C32.8117 7.99737 32.8654 8.033 32.9082 8.07966C32.9511 8.12715 32.9815 8.18437 32.9965 8.24621C33.0115 8.30805 33.0107 8.37259 32.9943 8.43408L31.8211 13.0146C31.6661 13.6022 31.3596 14.1405 30.9314 14.5772C30.5032 15.0138 29.9677 15.3342 29.3769 15.5071H29.3456C29.0266 15.5981 28.6962 15.6448 28.3641 15.6458H28.0982C27.8868 17.0732 27.3967 18.4469 26.6551 19.6908L26.9719 19.8564C26.9906 19.8316 27.0116 19.8084 27.0345 19.7871C27.7237 19.1187 28.5975 18.665 29.5468 18.4828C30.4961 18.3006 31.4789 18.3978 32.3725 18.7624C32.7924 18.4169 33.2683 18.1434 33.7803 17.9534C33.2469 17.2264 32.9933 16.3362 33.065 15.442C33.1366 14.5478 33.5288 13.7079 34.1714 13.0724L37.8513 9.44726C37.8956 9.40369 37.9499 9.37124 38.0096 9.35266C38.0694 9.33407 38.1327 9.32989 38.1944 9.34046C38.2561 9.35103 38.3144 9.37605 38.3642 9.4134C38.4141 9.45076 38.4541 9.49936 38.4809 9.55512C38.6585 9.94297 38.8101 10.3419 38.9345 10.7494C39.8002 10.6177 40.6846 10.6716 41.5272 10.9073C41.5896 10.926 41.6463 10.9598 41.692 11.0055C41.7378 11.0513 41.7712 11.1076 41.7893 11.1693C42.0499 11.9957 42.1049 12.8717 41.9496 13.7234C42.3211 13.839 42.7317 13.9854 43.1619 14.1664C43.2211 14.1909 43.2733 14.2293 43.3139 14.2783C43.3544 14.3274 43.3821 14.3855 43.3945 14.4475C43.4068 14.5096 43.4035 14.5737 43.3848 14.6342C43.366 14.6947 43.3325 14.7497 43.287 14.7944L39.6032 18.4156C38.9143 19.0957 37.9877 19.4907 37.013 19.5201C36.0382 19.5495 35.0888 19.2109 34.3591 18.5736C33.9236 18.7052 33.51 18.8986 33.1311 19.1476C33.431 19.3322 33.7079 19.5507 33.9563 19.7987C34.714 20.5471 35.2027 21.5189 35.3481 22.5662C35.4936 23.6135 35.2877 24.6789 34.7619 25.6004C35.2853 25.901 35.7185 26.333 36.0172 26.8524C36.4856 26.3727 36.9804 25.9188 37.4993 25.4925L37.7887 25.2536C37.7694 25.2148 37.7524 25.175 37.7378 25.1342C37.4632 24.3179 37.5289 23.4275 37.9205 22.6588C38.3121 21.8902 38.9976 21.3062 39.8261 21.0353L43.987 19.66C44.0473 19.6405 44.1115 19.6358 44.174 19.6462C44.2366 19.6567 44.2956 19.6819 44.346 19.7199C44.3964 19.7578 44.4368 19.8072 44.4635 19.8639C44.4902 19.9206 44.5025 19.9828 44.4993 20.0452C44.4866 20.3899 44.4513 20.7335 44.3937 21.0738C45.0805 21.3005 45.7128 21.6637 46.2513 22.1409C46.2991 22.185 46.3348 22.2402 46.3553 22.3015C46.3758 22.3627 46.3804 22.428 46.3686 22.4915C46.2446 23.2008 45.9525 23.8713 45.5161 24.4485C45.7429 24.6681 45.9814 24.9146 46.2278 25.219C46.2694 25.2672 46.2983 25.3247 46.3119 25.3866C46.3256 25.4484 46.3235 25.5125 46.306 25.5734C46.2887 25.6343 46.2565 25.69 46.2122 25.7357C46.1678 25.7813 46.1128 25.8156 46.0518 25.8354L41.8909 27.1914C41.5581 27.301 41.2095 27.3569 40.8585 27.3571C40.0846 27.3524 39.3371 27.0796 38.7468 26.5866C38.7033 26.5649 38.6647 26.5348 38.6334 26.498C38.4527 26.334 38.2914 26.1505 38.1524 25.9509C38.0976 25.9972 38.0468 26.0434 37.9999 26.0781C37.4433 26.5378 36.9145 27.0292 36.4161 27.5497C36.9989 28.0994 37.4934 28.7333 37.8825 29.4297C39.717 28.8467 41.6021 28.4314 43.5138 28.1892L44.3624 26.9872C44.3918 26.9453 44.4293 26.9094 44.4728 26.8819C44.5163 26.8543 44.5649 26.8354 44.6158 26.8265C44.6667 26.8175 44.7189 26.8186 44.7694 26.8297C44.8199 26.8407 44.8677 26.8615 44.9099 26.8909C44.9942 26.9498 45.0514 27.0392 45.069 27.1396C45.0866 27.2399 45.0632 27.343 45.0038 27.4264L44.5502 28.0698C44.9412 28.0274 45.3753 27.9889 45.8055 27.958C45.9092 27.9504 46.0117 27.9836 46.0906 28.0504C46.1694 28.1173 46.2181 28.2122 46.2259 28.3144C46.2336 28.4166 46.1999 28.5176 46.1321 28.5952C46.0642 28.6729 45.9678 28.7208 45.8641 28.7285C44.5228 28.8287 43.3105 28.9828 42.2233 29.1677C42.4619 29.2771 42.6831 29.4198 42.8803 29.5915C44.0183 30.6085 43.9049 32.4846 43.9049 32.5616C43.8989 32.6486 43.8632 32.731 43.8035 32.7954C43.7439 32.8598 43.6638 32.9023 43.5764 32.9161C43.3395 32.9504 43.1003 32.9672 42.8608 32.9662C41.9972 33.0019 41.1497 32.7282 40.4753 32.1957C39.6932 31.4984 39.5055 30.4005 39.4663 29.7494C39.0284 29.8688 38.6217 29.9882 38.2423 30.1077C39.0244 31.8335 39.7518 33.7482 39.7596 33.7675C39.7752 33.8133 39.7818 33.8617 39.7792 33.91C39.781 33.9241 39.781 33.9383 39.7792 33.9524C39.7756 33.9853 39.7677 34.0177 39.7557 34.0487C39.7462 34.0659 39.7357 34.0826 39.7244 34.0988C39.7124 34.1208 39.698 34.1414 39.6814 34.1604C32.4038 41.715 20.6875 41.9422 20.5702 41.9461C20.4665 41.9461 20.367 41.9055 20.2937 41.8333C20.2203 41.761 20.1791 41.663 20.1791 41.5609C20.1791 41.4587 20.2203 41.3607 20.2937 41.2884C20.367 41.2162 20.4665 41.1756 20.5702 41.1756C20.6836 41.1756 31.7937 40.956 38.8641 33.8946C38.2814 33.4015 36.8658 32.2458 35.4032 32.9007C35.3111 32.9422 35.2063 32.947 35.1108 32.9139C35.0152 32.8809 34.9364 32.8126 34.8909 32.7234C34.6068 32.1852 34.1345 31.7665 33.5613 31.5446C33.2976 31.4775 33.0227 31.4644 32.7536 31.5061C32.4846 31.5479 32.2271 31.6436 31.9971 31.7873C31.9111 31.8346 31.8101 31.8481 31.7144 31.8253C31.6188 31.8024 31.5353 31.7448 31.4808 31.664C30.3077 29.9073 28.7982 30.805 28.63 30.9128C28.5776 30.9473 28.5176 30.9688 28.4549 30.9756C28.3923 30.9823 28.3289 30.974 28.2702 30.9513C28.212 30.9282 28.1603 30.8917 28.1195 30.8447C28.0786 30.7978 28.0499 30.7419 28.0356 30.6817C27.8576 30.0145 27.441 29.4331 26.8624 29.0444C26.5946 28.909 26.3009 28.8308 26.0003 28.8148C25.6998 28.7989 25.3992 28.8456 25.1183 28.952H25.0752H25.04H24.9853C24.9619 28.9538 24.9383 28.9538 24.9149 28.952H24.8484L24.7898 28.9173L24.735 28.8749L24.6881 28.8248C24.672 28.8022 24.6588 28.7776 24.649 28.7516C24.641 28.7409 24.6344 28.7293 24.6294 28.717C24.5563 28.4122 24.3976 28.1339 24.1715 27.9138C23.9453 27.6938 23.6609 27.5409 23.3507 27.4726C23.609 27.9947 23.703 28.581 23.6205 29.1561C23.4504 29.9922 22.9656 30.7339 22.2635 31.2326C22.5257 31.637 22.7022 32.0895 22.7821 32.5629C22.8621 33.0363 22.844 33.5207 22.7289 33.987C22.4818 34.7589 21.9668 35.4204 21.2741 35.8555C21.4971 36.2878 21.6261 36.7611 21.6531 37.2453C21.68 37.7295 21.6042 38.214 21.4305 38.6677C21.2107 39.1101 20.904 39.505 20.528 39.8297C20.1521 40.1544 19.7145 40.4024 19.2406 40.5592C19.2017 40.565 19.1622 40.565 19.1233 40.5592C19.0718 40.5595 19.0208 40.5498 18.9731 40.5306C18.9255 40.5115 18.8822 40.4832 18.8456 40.4475L14.0043 35.6705L12.5143 35.2121L19.1624 41.7612C19.2297 41.8156 19.2767 41.8907 19.2958 41.9744C19.315 42.0582 19.3052 42.1458 19.268 42.2235L14.0003 52.6249C13.9727 52.6784 13.9341 52.7257 13.8869 52.7636C13.4111 53.0683 12.855 53.229 12.2875 53.2259C11.4573 53.2075 10.6612 52.8974 10.0428 52.3514C9.31554 52.5691 8.53334 52.5242 7.83666 52.2248C7.13998 51.9254 6.57447 51.3912 6.24167 50.718C5.5534 50.5292 3.1992 49.7241 2.9059 47.4165C2.05339 46.7963 0.880199 45.4518 1.43942 43.9994C0.50478 43.1827 -0.656677 41.5069 0.453941 39.8774C0.485703 39.8296 0.52861 39.7899 0.579079 39.7618ZM22.0054 9.53586C21.6576 9.17646 21.1894 8.95338 20.6875 8.90792C20.6029 9.39849 20.703 9.90263 20.9691 10.3256C21.317 10.6842 21.7854 10.9059 22.287 10.9497C22.3692 10.4604 22.2692 9.95829 22.0054 9.53586ZM24.0194 5.23658C23.7776 5.44739 23.6184 5.73502 23.5697 6.04944C23.5806 6.36587 23.6959 6.67016 23.8981 6.91623C24.1422 6.6971 24.3024 6.40194 24.3518 6.08026C24.3414 5.77002 24.2242 5.4725 24.0194 5.23658ZM37.9881 10.4065L34.7267 13.6194C34.3606 13.9787 34.0933 14.4239 33.9499 14.913C33.8066 15.4021 33.7919 15.9191 33.9073 16.4154C34.0227 16.9116 34.2643 17.3708 34.6095 17.7497C34.9546 18.1286 35.3919 18.4148 35.8803 18.5813C37.0752 17.0774 38.001 15.3837 38.6177 13.5732C38.5865 12.4906 38.3738 11.4207 37.9881 10.4065ZM41.0971 11.5969C40.4578 11.4404 39.794 11.4064 39.1418 11.4967C39.2823 12.0708 39.37 12.6562 39.4038 13.2457C40.0036 13.2713 40.5988 13.3604 41.1792 13.5115C41.2894 12.8748 41.2614 12.2222 41.0971 11.5969ZM39.0401 17.8725L42.2976 14.6634C41.3421 14.2818 40.328 14.0617 39.2982 14.0124C38.6966 15.7134 37.8369 17.3149 36.7485 18.7624H36.8658C37.2701 18.7644 37.6708 18.6867 38.0442 18.5339C38.4177 18.3811 38.7563 18.1562 39.0401 17.8725ZM40.0725 21.748C39.6729 21.8789 39.3132 22.1067 39.0264 22.4105C38.7396 22.7143 38.535 23.0842 38.4314 23.4863C38.3278 23.8884 38.3285 24.3097 38.4335 24.7115C38.5385 25.1132 38.7444 25.4825 39.0323 25.7853C40.4793 25.1074 41.8011 24.196 42.9429 23.0886C43.3231 22.2948 43.5688 21.445 43.6703 20.573L40.0725 21.748ZM44.2373 21.8135C44.1293 22.2628 43.9828 22.7022 43.7993 23.1271C44.2045 23.3571 44.5868 23.6241 44.9412 23.9246C45.235 23.5152 45.4449 23.0533 45.5591 22.5647C45.166 22.2408 44.7187 21.9866 44.2373 21.8135ZM41.6485 26.4363L45.2423 25.2806C44.6996 24.6817 44.0633 24.1719 43.3574 23.7705C42.2828 24.783 41.0658 25.638 39.744 26.3092C40.037 26.4537 40.3561 26.5397 40.6829 26.5622C41.0098 26.5847 41.338 26.5432 41.6485 26.4402V26.4363ZM40.9954 31.6332C41.6133 32.1841 42.6027 32.2149 43.115 32.1841C43.0954 31.6794 42.9742 30.7086 42.3563 30.1539C41.7384 29.5992 40.7412 29.576 40.2328 29.603C40.2524 30.177 40.4127 31.117 40.9954 31.6371V31.6332ZM7.27016 33.8291C7.0586 33.7633 6.83387 33.7498 6.61576 33.7897C6.39764 33.8296 6.19284 33.9218 6.01938 34.058C5.84592 34.1943 5.70913 34.3704 5.62105 34.571C5.53297 34.7716 5.49631 34.9904 5.51429 35.2083C5.51429 35.3354 5.73328 36.4795 6.59362 36.6144L10.2813 34.6882L7.27016 33.8291ZM15.416 35.293C15.628 35.3568 15.8526 35.3687 16.0703 35.3278C16.2881 35.2869 16.4924 35.1943 16.6657 35.0581C16.839 34.9219 16.976 34.7462 17.0648 34.5462C17.1537 34.3461 17.1918 34.1278 17.1758 33.91C17.1492 33.5734 16.9947 33.2591 16.7431 33.0299C16.4916 32.8006 16.1615 32.6733 15.8188 32.6734C15.5796 32.6723 15.3445 32.7349 15.1383 32.8544L12.4596 34.3954L15.416 35.293ZM29.6859 6.96246C29.1181 7.12695 28.5873 7.39626 28.1216 7.75605C28.4929 8.13421 28.8292 8.54418 29.1266 8.98112C29.6004 8.73535 30.0983 8.53786 30.6127 8.3917C30.4056 7.85815 30.0903 7.37181 29.6859 6.96246ZM31.0272 12.8528L32.0714 8.84243C31.1512 8.98127 30.2606 9.26894 29.4356 9.69381C29.7563 11.2954 29.8366 12.9348 29.6741 14.5594C30.0059 14.3808 30.297 14.1373 30.5297 13.8438C30.7624 13.5503 30.9317 13.2131 31.0272 12.8528ZM28.8607 14.8599C29.0895 13.1246 29.0194 11.3637 28.6535 9.65143C28.118 8.82501 27.4497 8.08988 26.6747 7.47483L25.6345 11.4929C25.5434 11.8417 25.5231 12.2048 25.5747 12.5614C25.6263 12.9179 25.7488 13.261 25.9351 13.5709C26.1215 13.8807 26.368 14.1514 26.6607 14.3673C26.9533 14.5832 27.2863 14.7401 27.6406 14.8291C28.0398 14.9297 28.4569 14.9402 28.8607 14.8599ZM26.6512 17.8956C25.1887 16.0926 22.0953 15.8307 21.0121 15.796C20.9943 16.3825 20.8475 16.9582 20.5819 17.4834C20.9861 17.7475 21.3287 18.0933 21.5869 18.4978C21.8451 18.9022 22.0131 19.3562 22.0797 19.8295C22.6514 19.507 23.2854 19.3061 23.9408 19.2398C24.5962 19.1734 25.2584 19.2431 25.8847 19.4442C26.175 18.9454 26.4311 18.428 26.6512 17.8956ZM30.4758 19.1476C29.6576 19.1467 28.8575 19.385 28.1769 19.8324C27.4963 20.2798 26.9658 20.9161 26.6526 21.6607C26.3393 22.4053 26.2575 23.2247 26.4174 24.0152C26.5772 24.8057 26.9717 25.5317 27.5507 26.1012C28.2126 26.7518 29.0806 27.1597 30.0105 27.2569C27.9183 23.4392 29.111 20.9158 29.1658 20.8041C29.3126 20.4307 29.5378 20.092 29.8267 19.8102C30.1025 19.5363 30.4326 19.3212 30.7965 19.1784C30.6909 19.1707 30.5853 19.1476 30.4758 19.1476ZM33.4049 26.1166C33.8269 25.7005 34.1522 25.1991 34.3581 24.647C34.564 24.0949 34.6458 23.5054 34.5976 22.9191C34.4173 23.3598 34.1288 23.7497 33.758 24.0536C33.3872 24.3576 32.9457 24.5663 32.473 24.6609C32.0003 24.7556 31.5111 24.7333 31.0493 24.5961C30.5874 24.4588 30.1674 24.2109 29.8267 23.8745C29.7431 23.7919 29.6648 23.7044 29.592 23.6125C29.7605 24.9155 30.2112 26.1675 30.9138 27.2839C31.856 27.1894 32.736 26.777 33.4049 26.1166ZM31.8915 19.737C31.3966 19.7374 30.9172 19.9068 30.5349 20.2163C30.1525 20.5259 29.891 20.9565 29.7948 21.4347C29.6986 21.9129 29.7737 22.4091 30.0073 22.8389C30.2409 23.2687 30.6185 23.6054 31.0758 23.7917C31.5332 23.9779 32.0419 24.0022 32.5154 23.8604C32.9889 23.7186 33.3978 23.4195 33.6725 23.0139C33.9471 22.6084 34.0706 22.1216 34.0218 21.6365C33.973 21.1514 33.755 20.6979 33.4049 20.3534C33.0029 19.959 32.4588 19.7374 31.8915 19.737ZM34.3278 26.2514C34.2113 26.3951 34.0873 26.5327 33.9563 26.6636C33.8663 26.7522 33.7725 26.8331 33.6786 26.914C33.9673 27.5815 34.1009 28.3041 34.0697 29.029C34.4842 28.5166 34.9535 27.9696 35.458 27.4303C35.2219 26.9263 34.825 26.5123 34.3278 26.2514ZM35.4071 32.0762C35.9254 31.9324 36.4702 31.9076 36.9997 32.0038C37.5292 32.1 38.0292 32.3146 38.4613 32.631C38.1915 31.9607 37.8513 31.144 37.4915 30.3696C36.605 30.6803 35.7479 31.067 34.93 31.5254C35.1073 31.6929 35.2671 31.8774 35.4071 32.0762ZM34.2339 31.0053C35.143 30.4577 36.1093 30.0083 37.1161 29.6646C36.7765 29.085 36.3552 28.5558 35.8647 28.0929C35.0801 28.9464 34.35 29.847 33.6786 30.7895L33.7842 30.8165C33.9468 30.8632 34.1041 30.9265 34.2535 31.0053H34.2339ZM27.1948 28.3741C27.8293 28.7626 28.318 29.3441 28.587 30.0306C28.9737 29.852 29.4008 29.7755 29.8266 29.8086C30.2523 29.8417 30.662 29.9833 31.0155 30.2194C31.338 30.4255 31.6279 30.6773 31.8758 30.9668C32.1639 30.8333 32.4713 30.7449 32.787 30.7048C33.0639 30.1956 33.2286 29.6345 33.2704 29.0583C33.3121 28.4821 33.2301 27.9037 33.0295 27.3609C32.3491 27.7667 31.5787 28.0034 30.7848 28.0505C30.7575 28.0542 30.7299 28.0542 30.7026 28.0505H30.6596H30.4758C29.8301 28.0513 29.1906 27.9265 28.594 27.6832C27.9974 27.4399 27.4555 27.0829 26.9993 26.6328C26.8239 26.4572 26.6619 26.2692 26.5144 26.0704L26.4244 26.1474C25.8943 26.6699 25.5453 27.3441 25.4272 28.0736C26.0476 27.9705 26.6851 28.0836 27.23 28.3934L27.1948 28.3741ZM24.7507 27.4033C24.9597 26.7355 25.3316 26.1284 25.8339 25.635C25.9043 25.5618 25.9864 25.5041 26.0607 25.4386C25.7064 24.7564 25.5214 24.0012 25.5211 23.235C25.5196 22.2513 25.8254 21.291 26.397 20.4844C25.7199 20.0961 24.9399 19.9171 24.1582 19.9707C23.3766 20.0243 22.6293 20.3079 22.0132 20.7849C21.9617 21.0726 21.8791 21.3542 21.7669 21.6247C23.8747 23.7165 23.0026 25.5965 22.549 26.2899C22.6428 26.4017 22.7289 26.5095 22.811 26.6174C23.1791 26.592 23.5484 26.6495 23.8905 26.7857C24.2327 26.9219 24.5389 27.1331 24.7859 27.4033H24.7507ZM19.1585 39.6924C19.8084 39.4279 20.3382 38.9389 20.6484 38.3171C20.9456 37.6276 20.8479 36.7762 20.359 35.8246C20.3215 35.7306 20.3231 35.6257 20.3633 35.5328C20.4036 35.4398 20.4793 35.3662 20.5741 35.3277C21.2199 34.9917 21.711 34.4253 21.9467 33.7443C22.1579 33.0201 21.9663 32.2034 21.3836 31.2942C21.3554 31.2507 21.3363 31.2019 21.3276 31.151C21.3188 31.1 21.3206 31.0479 21.3328 30.9976C21.3456 30.9467 21.3689 30.8989 21.4012 30.8571C21.4335 30.8154 21.4741 30.7806 21.5205 30.7549C21.5205 30.7549 22.6467 30.1077 22.8188 29.0059C22.9361 28.2585 22.592 27.4457 21.7942 26.5943C21.7283 26.5233 21.6917 26.4305 21.6917 26.3342C21.6917 26.238 21.7283 26.1452 21.7942 26.0742C21.8607 25.9972 23.4641 24.2097 21.059 22.0099C20.9935 21.9494 20.9511 21.8685 20.939 21.7808C20.9269 21.6931 20.9458 21.604 20.9925 21.5284C21.1557 21.2344 21.2618 20.913 21.3054 20.5807C21.3035 20.5589 21.3035 20.537 21.3054 20.5152C21.3836 19.7871 21.1724 18.7855 19.8428 17.9456C19.7985 17.9175 19.7604 17.8808 19.7308 17.8378C19.7012 17.7947 19.6808 17.7463 19.6708 17.6952C19.6608 17.6448 19.6613 17.5929 19.672 17.5426C19.6828 17.4923 19.7036 17.4447 19.7333 17.4025C20.0875 16.8814 20.2589 16.2605 20.2215 15.6345C20.1841 15.0086 19.9399 14.4118 19.5261 13.9353C18.1448 15.3789 16.9723 17.0032 16.0417 18.7624C13.6887 23.2081 12.6239 28.2063 12.964 33.2089L14.7434 32.1918C15.0276 32.028 15.3464 31.9309 15.675 31.9081C16.0035 31.8853 16.333 31.9374 16.6377 32.0604C16.9425 32.1834 17.2144 32.3739 17.4323 32.6171C17.6503 32.8604 17.8083 33.1499 17.8943 33.4631C17.9802 33.7763 17.9917 34.1048 17.9279 34.4231C17.8641 34.7414 17.7267 35.0409 17.5263 35.2984C17.3259 35.5559 17.068 35.7644 16.7725 35.9078C16.4771 36.0512 16.1521 36.1255 15.8227 36.1251C15.7329 36.1308 15.6427 36.1308 15.5529 36.1251L19.1585 39.6924ZM2.10423 43.5911C2.1787 43.6464 2.23066 43.7261 2.25073 43.8158C2.27081 43.9055 2.25769 43.9993 2.21372 44.0803C1.4316 45.5327 3.35954 46.8348 3.44557 46.8887C3.494 46.9224 3.53447 46.966 3.56417 47.0165C3.59387 47.0671 3.61211 47.1234 3.61764 47.1815C3.78579 49.4082 6.42937 49.9938 6.53887 50.0169C6.59656 50.0287 6.65079 50.0532 6.69751 50.0885C6.74424 50.1239 6.78225 50.1692 6.80871 50.2211C7.04988 50.8023 7.51166 51.2679 8.09588 51.519C8.6801 51.77 9.34068 51.7867 9.93721 51.5655C10.0027 51.5416 10.0736 51.5354 10.1423 51.5476C10.2111 51.5598 10.2753 51.59 10.3283 51.6349C11.7987 52.937 12.9953 52.3745 13.2886 52.1973L18.3724 42.1272L11.2512 35.058L1.03662 40.3936C0.0511436 41.9808 2.06121 43.5256 2.13942 43.5911H2.10423Z" fill="#C136A4"/>
</svg>
