<svg width="37" height="37" viewBox="0 0 37 37" fill="none" xmlns="http://www.w3.org/2000/svg">
<path fill-rule="evenodd" clip-rule="evenodd" d="M18.5 37C28.7173 37 37 28.7173 37 18.5C37 8.28273 28.7173 0 18.5 0C8.28273 0 0 8.28273 0 18.5C0 28.7173 8.28273 37 18.5 37Z" fill="url(#paint0_linear_98_430)"/>
<path fill-rule="evenodd" clip-rule="evenodd" d="M15.1085 26.9793C14.5092 26.9793 14.611 26.753 14.4043 26.1824L12.6418 20.3819L26.2085 12.3335" fill="#C8DAEA"/>
<path fill-rule="evenodd" clip-rule="evenodd" d="M15.1082 26.9791C15.5707 26.9791 15.775 26.7676 16.0332 26.5166L18.4998 24.1181L15.423 22.2627" fill="#A9C9DD"/>
<path fill-rule="evenodd" clip-rule="evenodd" d="M15.4227 22.2631L22.8782 27.7713C23.729 28.2407 24.343 27.9977 24.5549 26.9815L27.5897 12.6805C27.9004 11.4348 27.1148 10.8698 26.3009 11.2393L8.48082 18.1107C7.26443 18.5986 7.27152 19.2772 8.25909 19.5796L12.8321 21.0069L23.4192 14.3276C23.919 14.0245 24.3777 14.1875 24.0012 14.5216" fill="url(#paint1_linear_98_430)"/>
<defs>
<linearGradient id="paint0_linear_98_430" x1="13.8768" y1="1.5429" x2="4.62685" y2="23.125" gradientUnits="userSpaceOnUse">
<stop stop-color="#37AEE2"/>
<stop offset="1" stop-color="#1E96C8"/>
</linearGradient>
<linearGradient id="paint1_linear_98_430" x1="16.184" y1="19.6363" x2="18.1607" y2="26.0303" gradientUnits="userSpaceOnUse">
<stop stop-color="#EFF7FC"/>
<stop offset="1" stop-color="white"/>
</linearGradient>
</defs>
</svg>
