<svg width="37" height="37" viewBox="0 0 37 37" fill="none" xmlns="http://www.w3.org/2000/svg">
<path fill-rule="evenodd" clip-rule="evenodd" d="M18.5 0C28.7173 0 37 8.28273 37 18.5C37 28.7173 28.7173 37 18.5 37C8.28273 37 0 28.7173 0 18.5C0 8.28273 8.28273 0 18.5 0Z" fill="#7F4DA0"/>
<path fill-rule="evenodd" clip-rule="evenodd" d="M23.4287 16.1555C23.3387 15.4245 23.114 14.8505 22.715 14.3421C22.1969 13.6875 21.5348 13.2954 20.5546 13.0629C19.9157 12.9079 19.6576 12.9257 19.4266 13.1367C19.2114 13.3345 19.1693 13.7309 19.3338 13.9876C19.4495 14.1739 19.5829 14.2406 19.954 14.3135C20.4482 14.4044 20.7897 14.5224 21.1004 14.7C21.7598 15.0808 22.0668 15.6766 22.0997 16.6411C22.1151 17.094 22.1542 17.2333 22.3124 17.3939C22.6056 17.6875 23.1274 17.6304 23.3487 17.2791C23.4299 17.1466 23.4423 17.089 23.4509 16.7814C23.4566 16.591 23.4484 16.3077 23.4287 16.1555Z" fill="white"/>
<path fill-rule="evenodd" clip-rule="evenodd" d="M26.0113 16.9797C25.8811 14.7402 25.0051 12.9384 23.4374 11.6706C22.5541 10.9583 21.4865 10.4685 20.3161 10.2303C19.8874 10.1451 19.0981 10.076 18.9627 10.1155C18.8349 10.1521 18.6542 10.2904 18.5737 10.4156C18.4885 10.5512 18.4693 10.8542 18.5419 11.0294C18.6592 11.3224 18.8774 11.4258 19.4885 11.4793C20.4305 11.5617 21.4022 11.8927 22.1363 12.3827C22.9745 12.9405 23.6407 13.7036 24.0718 14.6002C24.4442 15.3706 24.6732 16.4809 24.6669 17.4751C24.6648 17.8347 24.7203 18.0377 24.8649 18.1862C25.0832 18.4145 25.4013 18.4644 25.6821 18.3128C25.9933 18.1491 26.0661 17.8618 26.0113 16.9797Z" fill="white"/>
<path fill-rule="evenodd" clip-rule="evenodd" d="M28.8695 25.6042C28.8257 25.4762 28.7235 25.2788 28.6505 25.1654C28.1904 24.4707 25.7186 22.5362 24.4845 21.9036C23.7798 21.5416 23.2577 21.421 22.8706 21.5343C22.4544 21.6513 22.2353 21.8451 21.5379 22.7118C21.2568 23.0592 20.9684 23.3846 20.8917 23.4358C20.7018 23.5674 20.3294 23.6735 20.0665 23.6735C19.4568 23.6698 18.3505 23.2749 17.4997 22.7556C16.8389 22.3534 15.9918 21.6331 15.3419 20.92C14.5751 20.0826 14.053 19.3439 13.6404 18.5102C13.1074 17.4388 12.9723 16.7842 13.195 16.3052C13.2497 16.1845 13.3228 16.0565 13.3556 16.0163C13.3885 15.9798 13.7317 15.6982 14.1114 15.391C14.8563 14.7986 14.9767 14.6633 15.1155 14.2574C15.2907 13.7418 15.2433 13.2152 14.9731 12.685C14.765 12.2828 14.221 11.4052 13.8266 10.8384C13.3045 10.0924 12.0047 8.4981 11.7454 8.2823C11.2781 7.90203 10.6793 7.83617 10.0184 8.0922C9.32108 8.3628 8.01391 9.41592 7.45526 10.1509C6.9514 10.8164 6.75795 11.2881 6.72871 11.9098C6.70317 12.4217 6.74696 12.6338 7.01716 13.2884C9.1312 18.4224 12.2858 22.5216 16.6198 25.7761C18.8835 27.4765 21.2312 28.771 23.6666 29.6559C25.0869 30.1715 25.704 30.1971 26.4305 29.7729C26.7372 29.5901 27.4967 28.8112 27.9202 28.2444C28.6213 27.3009 28.8805 26.8658 28.9535 26.5184C29.0046 26.2807 28.9645 25.8676 28.8695 25.6042Z" fill="white"/>
<path fill-rule="evenodd" clip-rule="evenodd" d="M28.6406 17.494C28.5938 16.2271 28.3805 15.188 27.9358 14.0295C27.4967 12.89 27.0523 12.1463 26.213 11.1405C25.4195 10.1975 24.8032 9.65899 23.8258 9.0596C22.4621 8.22449 20.8025 7.67184 18.9426 7.43942C18.3084 7.35819 18.1649 7.36399 17.9703 7.49383C17.5932 7.73979 17.5982 8.35328 17.9765 8.59555C18.1017 8.67262 18.2128 8.7007 18.7202 8.76711C19.499 8.87196 19.9998 8.97078 20.5941 9.13292C22.9243 9.76992 24.7163 11.072 25.9143 13.0048C26.9168 14.6158 27.333 16.227 27.2739 18.2847C27.2534 18.9804 27.2683 19.1028 27.3746 19.2699C27.5783 19.5815 28.1153 19.6431 28.3908 19.3846C28.5623 19.227 28.5946 19.1087 28.6283 18.5133C28.6445 18.2027 28.648 17.7442 28.6406 17.494Z" fill="white"/>
</svg>
