<svg width="37" height="37" viewBox="0 0 37 37" fill="none" xmlns="http://www.w3.org/2000/svg">
<path fill-rule="evenodd" clip-rule="evenodd" d="M0 18.5C0 8.28273 8.28273 0 18.5 0C28.7173 0 37 8.28273 37 18.5C37 28.7173 28.7173 37 18.5 37C8.28273 37 0 28.7173 0 18.5Z" fill="#4C6C91"/>
<path fill-rule="evenodd" clip-rule="evenodd" d="M19.4677 24.5711C19.4677 24.5711 19.8239 24.5323 20.0063 24.34C20.1733 24.1637 20.1675 23.8312 20.1675 23.8312C20.1675 23.8312 20.1453 22.2784 20.8797 22.0492C21.6036 21.8237 22.5331 23.5508 23.5195 24.2149C24.2646 24.717 24.8301 24.6071 24.8301 24.6071L27.466 24.5711C27.466 24.5711 28.8442 24.4878 28.1908 23.4238C28.1368 23.3367 27.8096 22.6365 26.2315 21.1984C24.5782 19.693 24.8002 19.9365 26.7904 17.3321C28.0026 15.7461 28.4871 14.7779 28.3356 14.3639C28.1918 13.9679 27.3 14.073 27.3 14.073L24.3331 14.091C24.3331 14.091 24.113 14.0617 23.9499 14.1574C23.7907 14.2511 23.6874 14.47 23.6874 14.47C23.6874 14.47 23.2183 15.6969 22.5919 16.7409C21.2706 18.9427 20.7427 19.0592 20.5265 18.9228C20.0237 18.6035 20.1491 17.6419 20.1491 16.9588C20.1491 14.8243 20.4792 13.9347 19.5073 13.7045C19.1849 13.6278 18.9475 13.5775 18.1223 13.569C17.0635 13.5586 16.1678 13.5728 15.6602 13.8163C15.3224 13.9783 15.0618 14.3402 15.221 14.361C15.417 14.3866 15.8609 14.4785 16.0964 14.7931C16.4004 15.1995 16.3898 16.1109 16.3898 16.1109C16.3898 16.1109 16.5645 18.6234 15.9816 18.9351C15.582 19.1492 15.0338 18.7124 13.8553 16.7144C13.2521 15.6912 12.7965 14.56 12.7965 14.56C12.7965 14.56 12.7087 14.3487 12.5514 14.235C12.3613 14.0977 12.0958 14.055 12.0958 14.055L9.27662 14.073C9.27662 14.073 8.85291 14.0844 8.69752 14.2654C8.5595 14.4255 8.6869 14.758 8.6869 14.758C8.6869 14.758 10.8942 19.8275 13.394 22.3826C15.6862 24.7246 18.2883 24.5711 18.2883 24.5711H19.4677Z" fill="white"/>
</svg>
