<svg width="37" height="37" viewBox="0 0 37 37" fill="none" xmlns="http://www.w3.org/2000/svg">
<path fill-rule="evenodd" clip-rule="evenodd" d="M18.5 37C28.7173 37 37 28.7173 37 18.5C37 8.28273 28.7173 0 18.5 0C8.28273 0 0 8.28273 0 18.5C0 28.7173 8.28273 37 18.5 37Z" fill="#25D366"/>
<path fill-rule="evenodd" clip-rule="evenodd" d="M19.11 28.7924H19.1054C17.2643 28.7918 15.4552 28.3299 13.8485 27.4534L8.01685 28.9832L9.57749 23.2828C8.61481 21.6144 8.10825 19.722 8.10908 17.7832C8.11149 11.7178 13.0464 6.7832 19.1099 6.7832C22.0527 6.78447 24.8147 7.9301 26.8916 10.0095C28.9686 12.0887 30.1117 14.8525 30.1106 17.7919C30.1081 23.8558 25.1752 28.79 19.11 28.7924ZM14.1185 25.4617L14.4524 25.6599C15.8563 26.4929 17.4655 26.9337 19.1061 26.9344H19.1099C24.1494 26.9344 28.251 22.8326 28.2531 17.791C28.254 15.3479 27.3039 13.0507 25.5776 11.3224C23.8513 9.59413 21.5556 8.64187 19.1135 8.64103C14.07 8.64103 9.96831 12.7424 9.96631 17.7836C9.9656 19.5113 10.449 21.1938 11.3643 22.6495L11.5817 22.9955L10.658 26.3695L14.1185 25.4617ZM24.6518 20.4079C24.5831 20.2933 24.3999 20.2245 24.1251 20.0868C23.8502 19.9493 22.4988 19.2844 22.2468 19.1926C21.9949 19.1009 21.8116 19.0551 21.6284 19.3301C21.4452 19.6053 20.9184 20.2245 20.758 20.4079C20.5977 20.5913 20.4373 20.6143 20.1626 20.4767C19.8877 20.3391 19.002 20.0489 17.9521 19.1124C17.135 18.3835 16.5833 17.4835 16.423 17.2083C16.2626 16.9331 16.4059 16.7844 16.5435 16.6473C16.6672 16.5241 16.8184 16.3262 16.9558 16.1657C17.0932 16.0053 17.139 15.8906 17.2307 15.7072C17.3223 15.5237 17.2765 15.3633 17.2078 15.2257C17.139 15.0881 16.5893 13.7351 16.3603 13.1847C16.1371 12.6487 15.9106 12.7214 15.7418 12.7129C15.5817 12.7048 15.3982 12.7031 15.215 12.7031C15.0318 12.7031 14.734 12.7719 14.482 13.0471C14.2301 13.3223 13.52 13.9873 13.52 15.3402C13.52 16.6932 14.5049 18.0002 14.6424 18.1836C14.7798 18.3671 16.5806 21.1434 19.338 22.334C19.9937 22.6173 20.5057 22.7864 20.9049 22.913C21.5634 23.1223 22.1626 23.0928 22.6362 23.022C23.1643 22.9431 24.2624 22.3571 24.4916 21.715C24.7205 21.0729 24.7205 20.5225 24.6518 20.4079Z" fill="#FDFDFD"/>
</svg>
